<svg xmlns="http://www.w3.org/2000/svg" width="64" height="64" viewBox="0 0 64 64" fill="none">
  <rect width="64" height="64" rx="12" fill="#3B82F6"/>
  <path d="M32 16C23.164 16 16 23.164 16 32C16 40.836 23.164 48 32 48C40.836 48 48 40.836 48 32C48 23.164 40.836 16 32 16ZM32 20C38.617 20 44 25.383 44 32C44 38.617 38.617 44 32 44C25.383 44 20 38.617 20 32C20 25.383 25.383 20 32 20Z" fill="white"/>
  <path d="M32 24C28.686 24 26 26.686 26 30C26 33.314 28.686 36 32 36C35.314 36 38 33.314 38 30C38 26.686 35.314 24 32 24ZM32 28C33.105 28 34 28.895 34 30C34 31.105 33.105 32 32 32C30.895 32 30 31.105 30 30C30 28.895 30.895 28 32 28Z" fill="white"/>
  <path d="M32 36C26.477 36 22 40.477 22 46H42C42 40.477 37.523 36 32 36Z" fill="white"/>
</svg>